<svg xmlns="http://www.w3.org/2000/svg" width="166" height="44" fill="none" viewBox="0 0 166 44">
    <path fill="#fff" d="M0 0h166v44H0z"/>
    <path fill="#000" d="M7.17 39.355c1.7-1.417 2.607-2.153 2.72-2.21 5.44-4.533 9.747-8.217 12.92-11.05 3.173-2.89 5.837-5.865 7.99-8.925 2.153-3.06 3.23-5.978 3.23-8.755 0-2.323-.538-4.108-1.615-5.355-1.02-1.247-2.578-1.87-4.675-1.87-4.307 0-6.545 3.088-6.715 9.265H7C7.095 6.411 7.83 2.925 9.203 0h38.25c.855 2.228 1.282 4.636 1.282 7.225 0 5.78-2.04 11.192-6.12 16.235-4.08 4.987-9.322 9.945-15.725 14.875h22.95V44H7.17v-4.645zM99.061 44h-37.49c-.226-.266-.445-.54-.656-.82-2.04-2.777-3.117-6.12-3.23-10.03h15.47c.226 2.267.991 3.995 2.295 5.185 1.303 1.19 3.003 1.785 5.1 1.785 2.153 0 3.853-.51 5.1-1.53 1.246-1.077 1.87-2.493 1.87-4.25 0-1.473-.51-2.692-1.53-3.655-.964-.963-2.182-1.757-3.655-2.38-1.417-.623-3.457-1.332-6.12-2.125-3.854-1.19-6.999-2.38-9.435-3.57-2.437-1.19-4.534-2.947-6.29-5.27-1.757-2.323-2.635-5.355-2.635-9.095 0-3.137.642-5.885 1.926-8.245H99.69c1.359 2.377 2.119 5.154 2.28 8.33H86.245c-.114-2.04-.822-3.598-2.125-4.675-1.247-1.133-2.919-1.7-5.015-1.7-1.757 0-3.174.482-4.25 1.445-1.077.963-1.615 2.352-1.615 4.165 0 1.927.906 3.428 2.72 4.505 1.813 1.077 4.646 2.238 8.5 3.485 3.853 1.303 6.97 2.55 9.35 3.74 2.436 1.19 4.533 2.918 6.29 5.185 1.756 2.267 2.635 5.185 2.635 8.755 0 3.4-.879 6.488-2.635 9.265-.319.52-.665 1.02-1.039 1.5z"/>
    <path fill="#000" fill-rule="evenodd" d="M127.914 44h-14.535V0h42.655c.123.195.241.394.355.595 1.644 2.89 2.465 6.205 2.465 9.945 0 3.457-.793 6.63-2.38 9.52-1.586 2.833-4.023 5.128-7.31 6.885-3.286 1.757-7.366 2.635-12.24 2.635h-9.01V44zm14.11-27.85c-1.36 1.36-3.428 2.04-6.205 2.04h-7.905V2.89h7.905c2.777 0 4.845.68 6.205 2.04 1.36 1.36 2.04 3.23 2.04 5.61 0 2.38-.68 4.25-2.04 5.61z" clip-rule="evenodd"/>
</svg>
