<svg xmlns="http://www.w3.org/2000/svg" width="328" height="65" fill="none" viewBox="0 0 328 65">
    <path fill="url(#a)" d="M0 0h328v65H0z"/>
    <path fill="#000" d="M97.468 32.782h5.094v6.66c-.672.228-1.374.408-2.106.54a13.96 13.96 0 0 1-2.466.198c-1.92 0-3.396-.564-4.428-1.692-1.032-1.128-1.548-2.772-1.548-4.932 0-1.344.258-2.508.774-3.492a5.412 5.412 0 0 1 2.268-2.286c1.008-.54 2.232-.81 3.672-.81.684 0 1.356.072 2.016.216.66.144 1.26.336 1.8.576l-.9 2.178a6.587 6.587 0 0 0-1.35-.504 6.223 6.223 0 0 0-1.584-.198c-.792 0-1.482.18-2.07.54-.576.36-1.026.87-1.35 1.53-.312.66-.468 1.428-.468 2.304 0 .84.114 1.584.342 2.232.228.648.588 1.158 1.08 1.53.492.36 1.134.54 1.926.54.384 0 .708-.018.972-.054.264-.036.516-.078.756-.126V35.05h-2.43v-2.268zm13.782-2.79c1.356 0 2.43.39 3.222 1.17.792.768 1.188 1.866 1.188 3.294v1.296h-6.336c.024.756.246 1.35.666 1.782.432.432 1.026.648 1.782.648.624 0 1.194-.06 1.71-.18a8.594 8.594 0 0 0 1.62-.594v2.07a6.405 6.405 0 0 1-1.53.522c-.528.12-1.17.18-1.926.18-.984 0-1.854-.18-2.61-.54a4.164 4.164 0 0 1-1.782-1.656c-.432-.744-.648-1.686-.648-2.826 0-1.14.192-2.094.576-2.862.396-.768.942-1.344 1.638-1.728.696-.384 1.506-.576 2.43-.576zm.018 1.908c-.528 0-.96.168-1.296.504-.336.336-.534.858-.594 1.566h3.762c-.012-.588-.174-1.08-.486-1.476-.3-.396-.762-.594-1.386-.594zm12.506 6.138c.3 0 .588-.024.864-.072a7.13 7.13 0 0 0 .828-.234v1.998c-.288.132-.648.24-1.08.324a7.08 7.08 0 0 1-1.386.126 4.14 4.14 0 0 1-1.584-.288c-.456-.192-.822-.522-1.098-.99-.264-.468-.396-1.128-.396-1.98v-4.734h-1.278v-1.134l1.476-.9.774-2.07h1.71v2.088h2.754v2.016h-2.754v4.734c0 .372.108.654.324.846.216.18.498.27.846.27zM138.613 40h-2.682V27.148h7.362v2.232h-4.68v3.312h4.356v2.232h-4.356V40zm17.799-9.828V40h-2.052l-.36-1.26h-.144c-.312.504-.744.87-1.296 1.098a4.396 4.396 0 0 1-1.728.342c-1.056 0-1.902-.282-2.538-.846-.636-.576-.954-1.494-.954-2.754v-6.408h2.682v5.742c0 .708.126 1.242.378 1.602.252.348.654.522 1.206.522.816 0 1.374-.276 1.674-.828.3-.564.45-1.368.45-2.412v-4.626h2.682zM163.706 40h-2.682V26.32h2.682V40zm7.284 0h-2.682V26.32h2.682V40zm16.172-7.218h5.094v6.66c-.672.228-1.374.408-2.106.54-.732.132-1.554.198-2.466.198-1.92 0-3.396-.564-4.428-1.692-1.032-1.128-1.548-2.772-1.548-4.932 0-1.344.258-2.508.774-3.492a5.412 5.412 0 0 1 2.268-2.286c1.008-.54 2.232-.81 3.672-.81a9.43 9.43 0 0 1 2.016.216c.66.144 1.26.336 1.8.576l-.9 2.178a6.587 6.587 0 0 0-1.35-.504 6.227 6.227 0 0 0-1.584-.198c-.792 0-1.482.18-2.07.54-.576.36-1.026.87-1.35 1.53-.312.66-.468 1.428-.468 2.304 0 .84.114 1.584.342 2.232.228.648.588 1.158 1.08 1.53.492.36 1.134.54 1.926.54.384 0 .708-.018.972-.054.264-.036.516-.078.756-.126V35.05h-2.43v-2.268zm18.75-2.61V40h-2.052l-.36-1.26h-.144c-.312.504-.744.87-1.296 1.098a4.396 4.396 0 0 1-1.728.342c-1.056 0-1.902-.282-2.538-.846-.636-.576-.954-1.494-.954-2.754v-6.408h2.682v5.742c0 .708.126 1.242.378 1.602.252.348.654.522 1.206.522.816 0 1.374-.276 1.674-.828.3-.564.45-1.368.45-2.412v-4.626h2.682zm5.962-3.852c.396 0 .738.096 1.026.288.288.18.432.522.432 1.026 0 .492-.144.834-.432 1.026-.288.192-.63.288-1.026.288-.408 0-.756-.096-1.044-.288-.276-.192-.414-.534-.414-1.026 0-.504.138-.846.414-1.026.288-.192.636-.288 1.044-.288zm1.332 3.852V40h-2.682v-9.828h2.682zm7.716 10.008c-1.092 0-1.986-.426-2.682-1.278-.684-.864-1.026-2.13-1.026-3.798 0-1.68.348-2.952 1.044-3.816.696-.864 1.608-1.296 2.736-1.296.708 0 1.29.138 1.746.414.456.276.816.618 1.08 1.026h.09a17.044 17.044 0 0 1-.126-.828 8.853 8.853 0 0 1-.072-1.134v-3.15h2.682V40h-2.052l-.522-1.278h-.108a3.529 3.529 0 0 1-1.062 1.044c-.444.276-1.02.414-1.728.414zm.936-2.142c.732 0 1.248-.216 1.548-.648.3-.444.462-1.104.486-1.98v-.288c0-.948-.15-1.674-.45-2.178-.288-.516-.828-.774-1.62-.774-.588 0-1.05.258-1.386.774-.336.504-.504 1.236-.504 2.196 0 .96.168 1.686.504 2.178.336.48.81.72 1.422.72zm13.191-8.046c1.356 0 2.43.39 3.222 1.17.792.768 1.188 1.866 1.188 3.294v1.296h-6.336c.024.756.246 1.35.666 1.782.432.432 1.026.648 1.782.648.624 0 1.194-.06 1.71-.18a8.594 8.594 0 0 0 1.62-.594v2.07a6.405 6.405 0 0 1-1.53.522c-.528.12-1.17.18-1.926.18-.984 0-1.854-.18-2.61-.54a4.164 4.164 0 0 1-1.782-1.656c-.432-.744-.648-1.686-.648-2.826 0-1.14.192-2.094.576-2.862.396-.768.942-1.344 1.638-1.728.696-.384 1.506-.576 2.43-.576zm.018 1.908c-.528 0-.96.168-1.296.504-.336.336-.534.858-.594 1.566h3.762c-.012-.588-.174-1.08-.486-1.476-.3-.396-.762-.594-1.386-.594z"/>
    <defs>
        <linearGradient id="a" x1="328" x2="69" y2="65" gradientUnits="userSpaceOnUse">
            <stop stop-color="#0FF"/>
            <stop offset="1" stop-color="#FE86AA"/>
        </linearGradient>
    </defs>
</svg>
