<svg xmlns="http://www.w3.org/2000/svg" width="56" height="65" fill="none" viewBox="0 0 56 65">
    <path fill="url(#a)" d="M46.957 18.044a29.084 29.084 0 0 0-.715-.688l3.034-3.035a2.54 2.54 0 0 0-3.59-3.59l-3.494 3.493c-4.353-2.76-9.406-4.237-14.685-4.237C12.304 9.987 0 22.29 0 37.493 0 52.696 12.302 65 27.507 65c15.202 0 27.506-12.303 27.506-27.507 0-7.347-2.861-14.254-8.056-19.45zm-19.45 41.878c-12.367 0-22.429-10.062-22.429-22.429 0-12.367 10.062-22.428 22.429-22.428 12.367 0 22.428 10.061 22.428 22.428S39.874 59.922 27.507 59.922zM14.98 2.539A2.539 2.539 0 0 1 17.52 0h19.973a2.539 2.539 0 1 1 0 5.078H17.52a2.539 2.539 0 0 1-2.538-2.539zm15.066 19.974v14.98a2.539 2.539 0 1 1-5.078 0v-14.98a2.539 2.539 0 1 1 5.078 0z"/>
    <defs>
        <linearGradient id="a" x2="55.013" y1="32.5" y2="32.5" gradientUnits="userSpaceOnUse">
            <stop stop-color="#80D8FF"/>
            <stop offset="1" stop-color="#EA80FC"/>
        </linearGradient>
    </defs>
</svg>
