<svg xmlns="http://www.w3.org/2000/svg" width="98" height="26" fill="none" viewBox="0 0 98 26">
    <path fill="#fff" d="M0 0h98v25.976H0z"/>
    <path fill="#1B2537" d="M5.927 21.929c-.067.033-.602.468-1.606 1.305v2.742h25.19V22.63H15.964c3.78-2.91 6.875-5.837 9.283-8.781 2.41-2.977 3.613-6.172 3.613-9.585 0-1.528-.252-2.95-.756-4.265H5.52c-.81 1.727-1.244 3.785-1.3 6.172h8.28c.1-3.646 1.421-5.47 3.964-5.47 1.238 0 2.158.369 2.76 1.105.635.735.953 1.79.953 3.16 0 1.64-.635 3.363-1.907 5.17-1.27 1.806-2.843 3.562-4.717 5.268-1.873 1.673-4.416 3.848-7.627 6.524zM35.38 0c-.758 1.393-1.137 3.015-1.137 4.868 0 2.207.519 3.997 1.556 5.369 1.037 1.371 2.275 2.409 3.713 3.111 1.439.703 3.295 1.405 5.57 2.108 1.573.468 2.777.886 3.613 1.254.87.368 1.59.837 2.158 1.405.602.569.903 1.288.903 2.158 0 1.037-.368 1.873-1.104 2.509-.736.602-1.74.903-3.01.903-1.238 0-2.242-.351-3.011-1.053-.77-.703-1.221-1.723-1.355-3.062h-9.133c.067 2.309.703 4.283 1.907 5.922.125.165.254.327.387.484H58.57c.22-.284.425-.579.613-.886 1.037-1.639 1.556-3.462 1.556-5.47 0-2.107-.519-3.83-1.556-5.168s-2.275-2.358-3.713-3.061c-1.405-.703-3.245-1.438-5.52-2.208-2.275-.736-3.948-1.422-5.018-2.057-1.07-.636-1.606-1.522-1.606-2.66 0-1.07.318-1.89.953-2.459.636-.568 1.472-.853 2.51-.853 1.237 0 2.224.335 2.96 1.004.77.635 1.188 1.555 1.255 2.76h9.283c-.095-1.875-.543-3.515-1.346-4.918h-23.56z"/>
    <path fill="#1B2537" fill-rule="evenodd" d="M67.023 0v25.976h8.581v-8.513h5.32c2.876 0 5.285-.519 7.225-1.556 1.94-1.037 3.379-2.392 4.316-4.064.936-1.707 1.405-3.58 1.405-5.62 0-2.209-.485-4.166-1.456-5.872a9.512 9.512 0 0 0-.21-.351h-25.18zm16.911 9.534c-.803.803-2.024 1.205-3.663 1.205h-4.667V1.706h4.667c1.639 0 2.86.402 3.663 1.204.803.803 1.204 1.907 1.204 3.312 0 1.405-.401 2.51-1.204 3.312z" clip-rule="evenodd"/>
</svg>
