<svg xmlns="http://www.w3.org/2000/svg" width="197" height="207" fill="none" viewBox="0 0 197 207">
    <path fill="url(#a)" d="M84.553 41.324l-16.574 3.52a3.361 3.361 0 0 0-2.546 2.246 3.36 3.36 0 0 0 3.945 4.334l16.574-3.518a3.37 3.37 0 0 0 2.548-2.245 3.369 3.369 0 0 0-.707-3.32 3.369 3.369 0 0 0-3.24-1.014v-.003z"/>
    <path fill="url(#b)" d="M136.35 30.316l-40.473 8.599a3.364 3.364 0 1 0 1.399 6.58l37.187-7.9 2.099 9.863a3.363 3.363 0 0 0 3.993 2.59 3.363 3.363 0 0 0 2.59-3.989l-2.799-13.153a3.354 3.354 0 0 0-1.462-2.124 3.36 3.36 0 0 0-2.534-.466z"/>
    <path fill="url(#c)" d="M196.697 55.306L185.506 2.665a3.363 3.363 0 0 0-3.992-2.59l-39.477 8.392a3.364 3.364 0 0 0-2.59 3.99l1.399 6.591-88.843 18.876a3.365 3.365 0 0 0-2.59 3.989l1.4 6.576-32.89 6.99-1.394-6.563a3.365 3.365 0 0 0-3.993-2.59l-9.869 2.099a3.364 3.364 0 0 0-2.593 3.99l6.993 32.898a3.365 3.365 0 0 0 3.993 2.59l9.867-2.099a3.365 3.365 0 0 0 2.593-3.989l-1.4-6.58 32.887-6.989 1.399 6.58a3.364 3.364 0 0 0 3.992 2.59L80.58 73.13a16.803 16.803 0 0 0 4.985 6.034v13.477H62.019a3.364 3.364 0 0 0-3.363 3.364v12.782l-40.09 93.524a3.361 3.361 0 0 0 3.09 4.689h13.456c1.345 0 2.56-.801 3.09-2.038l39.487-92.14h7.875v90.815A3.364 3.364 0 0 0 88.927 207h13.454a3.364 3.364 0 0 0 3.364-3.363v-90.815h7.873l39.488 92.14a3.361 3.361 0 0 0 3.091 2.038h13.454a3.364 3.364 0 0 0 3.091-4.689l-40.089-93.524V96.005a3.364 3.364 0 0 0-3.364-3.364h-23.544V79.187v-.074a16.733 16.733 0 0 0 6.679-12.78l36.81-7.811 1.399 6.576a3.364 3.364 0 0 0 3.989 2.59l39.485-8.409a3.364 3.364 0 0 0 2.59-3.99v.017zm-183.749 25.3L7.356 54.298l3.29-.7 5.592 26.32-3.29.688zm7.773-11.966l-1.399-6.579 32.886-6.993 1.4 6.583-32.887 6.99zm12.173 131.633H26.76l37.475-87.451h6.136l-37.477 87.451zm66.124 0H92.29v-87.451h6.727v87.451zm59.395 0l-37.475-87.451h6.134l37.476 87.451h-6.135zm-32.487-94.178H65.383v-6.727h60.543v6.727zM99.018 82.551v10.09H92.29v-10.09h6.727zm-3.364-6.727a10.089 10.089 0 0 1-9.754-7.478 10.074 10.074 0 0 1 9.754-12.703c.615 0 1.229.056 1.833.166a10.018 10.018 0 0 1 8.13 8.358c.08.519.123 1.043.128 1.566 0 5.573-4.518 10.09-10.09 10.09zm15.701-16.144a17.465 17.465 0 0 0-.931-1.986c-.054-.097-.089-.204-.141-.302a17.096 17.096 0 0 0-1.541-2.253c-.182-.222-.391-.42-.583-.633a16.127 16.127 0 0 0-1.307-1.345c-.253-.23-.526-.43-.792-.642-.45-.353-.911-.69-1.396-1.01a17.394 17.394 0 0 0-.918-.537 15.74 15.74 0 0 0-1.557-.74c-.32-.135-.635-.276-.969-.392a17.944 17.944 0 0 0-1.823-.5c-.295-.068-.581-.155-.883-.206a17.192 17.192 0 0 0-2.86-.218c-9.284.011-16.806 7.535-16.817 16.817 0 .29 0 .578.023.87l-16.571 3.504-5.594-26.304 85.544-18.162 5.595 26.302-36.479 7.737zm45.161.712l-9.79-46.046 32.897-6.993 9.792 46.06-32.899 6.98z"/>
    <path fill="url(#d)" d="M176.274 12.508a3.393 3.393 0 0 0-2.532-.468l-8.156 1.736a3.365 3.365 0 1 0 1.399 6.58l4.863-1.04 6.294 29.598a3.365 3.365 0 0 0 6.582-1.4l-7.003-32.884a3.385 3.385 0 0 0-1.447-2.122z"/>
    <defs>
        <linearGradient id="a" x1="4.885" x2="197.549" y1="201.62" y2="8.959" gradientUnits="userSpaceOnUse">
            <stop stop-color="#003F8A"/>
            <stop offset=".518" stop-color="#00D7DF"/>
            <stop offset="1" stop-color="#006DF0"/>
        </linearGradient>
        <linearGradient id="b" x1="4.885" x2="197.549" y1="201.62" y2="8.959" gradientUnits="userSpaceOnUse">
            <stop stop-color="#003F8A"/>
            <stop offset=".518" stop-color="#00D7DF"/>
            <stop offset="1" stop-color="#006DF0"/>
        </linearGradient>
        <linearGradient id="c" x1="4.885" x2="197.549" y1="201.62" y2="8.959" gradientUnits="userSpaceOnUse">
            <stop stop-color="#003F8A"/>
            <stop offset=".518" stop-color="#00D7DF"/>
            <stop offset="1" stop-color="#006DF0"/>
        </linearGradient>
        <linearGradient id="d" x1="4.885" x2="197.549" y1="201.62" y2="8.959" gradientUnits="userSpaceOnUse">
            <stop stop-color="#003F8A"/>
            <stop offset=".518" stop-color="#00D7DF"/>
            <stop offset="1" stop-color="#006DF0"/>
        </linearGradient>
    </defs>
</svg>
